<svg width="39" height="37" viewBox="0 0 39 37" fill="none" xmlns="http://www.w3.org/2000/svg">
<path d="M15.707 6.60462C17.2979 2.67599 18.0933 0.711676 19.3856 0.439431C19.7253 0.367846 20.0765 0.367846 20.4163 0.439431C21.7086 0.711676 22.504 2.67599 24.0949 6.60462C24.9995 8.83876 25.4519 9.95583 26.2982 10.7156C26.5356 10.9287 26.7934 11.1185 27.0677 11.2823C28.046 11.8664 29.2672 11.9748 31.7096 12.1914C35.8442 12.5582 37.9115 12.7416 38.5428 13.9093C38.6735 14.1511 38.7624 14.4129 38.8058 14.6839C39.0151 15.9921 37.4953 17.3618 34.4558 20.1011L33.6117 20.8618C32.1907 22.1425 31.4802 22.7829 31.0692 23.582C30.8227 24.0614 30.6574 24.5776 30.5799 25.1101C30.4508 25.9978 30.6589 26.9268 31.075 28.7847L31.2237 29.4485C31.9699 32.7803 32.3431 34.4463 31.8773 35.2651C31.4589 36.0007 30.6882 36.4716 29.8369 36.5118C28.8892 36.5567 27.5538 35.4787 24.8829 33.3229C23.1233 31.9025 22.2435 31.1923 21.2668 30.9149C20.3742 30.6613 19.4277 30.6613 18.5351 30.9149C17.5584 31.1923 16.6786 31.9025 14.919 33.3229C12.2481 35.4787 10.9127 36.5567 9.96497 36.5118C9.11366 36.4716 8.343 36.0007 7.92461 35.2651C7.45883 34.4463 7.83196 32.7803 8.57822 29.4485L8.72689 28.7847C9.14302 26.9268 9.35108 25.9978 9.22196 25.1101C9.14451 24.5776 8.97922 24.0614 8.73269 23.582C8.32172 22.7829 7.6112 22.1425 6.19016 20.8618L5.3461 20.1011C2.30657 17.3618 0.786804 15.9921 0.996098 14.6839C1.03944 14.4129 1.12834 14.1511 1.25909 13.9093C1.89039 12.7416 3.95768 12.5582 8.09226 12.1914C10.5347 11.9748 11.7559 11.8664 12.7341 11.2823C13.0085 11.1185 13.2662 10.9287 13.5036 10.7156C14.35 9.95583 14.8024 8.83876 15.707 6.60462Z" fill="#C2C2C2"/>
</svg>
