<svg width="39" height="39" viewBox="0 0 39 39" fill="none" xmlns="http://www.w3.org/2000/svg">
<circle cx="19.4379" cy="19.4379" r="19.4379" fill="#B69DD9"/>
<path d="M15.2393 27.9902L14.4221 28.8223L15.2393 29.6249L16.0566 28.8223L15.2393 27.9902ZM21.7705 12.0512C22.4146 12.0512 22.9367 11.529 22.9367 10.8849C22.9367 10.2408 22.4146 9.71863 21.7705 9.71863L21.7705 12.0512ZM10.068 24.546L14.4221 28.8223L16.0566 27.1582L11.7025 22.8818L10.068 24.546ZM16.0566 28.8223L20.4106 24.546L18.7762 22.8818L14.4221 27.1582L16.0566 28.8223ZM16.4056 27.9902L16.4056 13.995L14.0731 13.995L14.0731 27.9902L16.4056 27.9902ZM18.3494 12.0512L21.7705 12.0512L21.7705 9.71863L18.3494 9.71863L18.3494 12.0512ZM16.4056 13.995C16.4056 12.9214 17.2759 12.0512 18.3494 12.0512L18.3494 9.71863C15.9876 9.71863 14.0731 11.6332 14.0731 13.995L16.4056 13.995Z" fill="white"/>
<path d="M23.7143 14.7727L22.8822 13.9555L23.7143 13.1083L24.5464 13.9555L23.7143 14.7727ZM23.7143 26.4354L22.548 26.4354L23.7143 26.4354ZM21.5762 29.1567C20.932 29.1567 20.4099 28.6346 20.4099 27.9905C20.4099 27.3464 20.932 26.8242 21.5762 26.8242L21.5762 29.1567ZM18.6059 18.3096L22.8822 13.9555L24.5464 15.5899L20.2701 19.944L18.6059 18.3096ZM24.5464 13.9555L28.8227 18.3096L27.1586 19.944L22.8822 15.5899L24.5464 13.9555ZM24.8806 14.7727L24.8806 26.4354L22.548 26.4354L22.548 14.7727L24.8806 14.7727ZM22.1593 29.1567L21.5762 29.1567L21.5762 26.8242L22.1593 26.8242L22.1593 29.1567ZM24.8806 26.4354C24.8806 27.9384 23.6622 29.1567 22.1593 29.1567L22.1593 26.8242C22.374 26.8242 22.548 26.6501 22.548 26.4354L24.8806 26.4354Z" fill="white"/>
</svg>
